<svg width="38" height="31" viewBox="0 0 38 31" fill="none" xmlns="http://www.w3.org/2000/svg">
<path d="M34.342 17.9144L37.416 5.54811C37.6379 4.65524 36.8957 3.805 35.8942 3.805H10.3528L9.75676 1.14091C9.60824 0.476874 8.96916 0 8.22778 0H1.56064C0.698714 0 0 0.638824 0 1.42688V2.37812C0 3.16618 0.698714 3.805 1.56064 3.805H6.10492L10.6729 24.2233C9.58008 24.7979 8.84365 25.8753 8.84365 27.1106C8.84365 28.9494 10.474 30.44 12.4852 30.44C14.4963 30.44 16.1267 28.9494 16.1267 27.1106C16.1267 26.1788 15.7074 25.3368 15.0327 24.7325H28.6653C27.9906 25.3368 27.5714 26.1788 27.5714 27.1106C27.5714 28.9494 29.2017 30.44 31.2129 30.44C33.224 30.44 34.8544 28.9494 34.8544 27.1106C34.8544 25.7924 34.0163 24.6533 32.8009 24.1139L33.1597 22.6706C33.3816 21.7777 32.6393 20.9275 31.6378 20.9275H14.1835L13.7579 19.025H32.8202C33.5489 19.025 34.1805 18.564 34.342 17.9144Z" fill="white" fill-opacity="0.85"/>
</svg>
