<svg width="52" height="52" viewBox="0 0 52 52" fill="none" xmlns="http://www.w3.org/2000/svg">
<path d="M32.8207 18.6297C38.8246 24.6398 38.7422 34.2755 32.8569 40.1934C32.8458 40.2055 32.8328 40.2185 32.8207 40.2306L26.0679 46.9834C20.112 52.9393 10.422 52.9385 4.46695 46.9834C-1.48899 41.0285 -1.48899 31.3374 4.46695 25.3825L8.19567 21.6537C9.18448 20.6649 10.8874 21.3221 10.9384 22.7195C11.0035 24.5004 11.3229 26.2896 11.9121 28.0174C12.1117 28.6024 11.9691 29.2495 11.532 29.6867L10.2169 31.0018C7.40061 33.818 7.31228 38.4037 10.1008 41.2475C12.9169 44.1194 17.5456 44.1365 20.3833 41.2988L27.1361 34.547C29.969 31.7141 29.9571 27.1353 27.1361 24.3143C26.7642 23.9431 26.3896 23.6547 26.097 23.4532C25.8899 23.311 25.719 23.1225 25.5978 22.9025C25.4766 22.6826 25.4085 22.4374 25.3989 22.1864C25.3591 21.1246 25.7353 20.0304 26.5744 19.1913L28.6901 17.0755C29.2449 16.5207 30.1152 16.4526 30.7585 16.9016C31.4953 17.416 32.1853 17.9943 32.8207 18.6297ZM46.983 4.46665C41.028 -1.48848 31.338 -1.48929 25.3821 4.46665L18.6293 11.2195C18.6172 11.2315 18.6041 11.2446 18.5931 11.2566C12.7079 17.1746 12.6254 26.8103 18.6293 32.8204C19.2646 33.4558 19.9547 34.034 20.6914 34.5484C21.3347 34.9974 22.2051 34.9291 22.7598 34.3744L24.8755 32.2587C25.7146 31.4196 26.0908 30.3254 26.051 29.2635C26.0414 29.0126 25.9733 28.7674 25.8521 28.5474C25.7309 28.3275 25.56 28.1389 25.3529 27.9968C25.0603 27.7953 24.6857 27.5069 24.3138 27.1357C21.4928 24.3147 21.4809 19.7358 24.3138 16.903L31.0666 10.1512C33.9043 7.31348 38.5329 7.33056 41.3491 10.2024C44.1376 13.0462 44.0494 17.6319 41.233 20.4482L39.9179 21.7633C39.4808 22.2004 39.3382 22.8475 39.5378 23.4326C40.127 25.1604 40.4464 26.9496 40.5115 28.7304C40.5626 30.1278 42.2654 30.785 43.2542 29.7962L46.9829 26.0675C52.939 20.1127 52.939 10.4216 46.983 4.46665Z" fill="#52BF90"/>
</svg>
