<svg width="30" height="30" viewBox="0 0 30 30" fill="none" xmlns="http://www.w3.org/2000/svg">
<path d="M8.91736 13.852C8.4662 13.3715 7.76309 13.4008 7.46427 14.016L0.0933544 28.7227C-0.199607 29.3086 0.233976 29.9941 0.878491 29.9941H11.1321C11.472 30 11.7767 29.8066 11.9173 29.502C14.1379 24.9435 12.802 18.0003 8.91736 13.852ZM14.3196 0.475333C7.15373 11.8071 13.8215 20.9006 18.1281 29.5078C18.2746 29.8066 18.5792 30 18.9132 30H29.12C29.7762 30 30.1981 29.3086 29.9051 28.7285C29.9051 28.7285 16.1652 1.155 15.8195 0.469473C15.509 -0.151605 14.718 -0.163323 14.3196 0.475333Z" fill="white" fill-opacity="0.85"/>
</svg>
